<mxfile host="65bd71144e">
    <diagram id="VhzDgCpmKqOP8-fe4E-I" name="Page-1">
        <mxGraphModel dx="523" dy="419" grid="1" gridSize="10" guides="1" tooltips="1" connect="1" arrows="1" fold="1" page="1" pageScale="1" pageWidth="850" pageHeight="1100" background="none" math="0" shadow="0">
            <root>
                <mxCell id="0"/>
                <mxCell id="1" parent="0"/>
                <mxCell id="4" value="" style="edgeStyle=none;html=1;" edge="1" parent="1" source="2">
                    <mxGeometry relative="1" as="geometry">
                        <mxPoint x="140" y="195" as="targetPoint"/>
                        <Array as="points">
                            <mxPoint x="270" y="100"/>
                            <mxPoint x="300" y="110"/>
                            <mxPoint x="300" y="150"/>
                            <mxPoint x="340" y="180"/>
                            <mxPoint x="330" y="230"/>
                            <mxPoint x="190" y="270"/>
                        </Array>
                    </mxGeometry>
                </mxCell>
                <mxCell id="2" value="Name" style="whiteSpace=wrap;html=1;" vertex="1" parent="1">
                    <mxGeometry x="100" y="100" width="80" height="30" as="geometry"/>
                </mxCell>
            </root>
        </mxGraphModel>
    </diagram>
</mxfile>